<svg xmlns="http://www.w3.org/2000/svg" version="1.1" xmlns:xlink="http://www.w3.org/1999/xlink" xmlns:svgjs="http://svgjs.dev/svgjs" width="1500" height="246" viewBox="0 0 1500 246"><g transform="matrix(1,0,0,1,-0.9090909090911055,0.6028639957025206)"><svg viewBox="0 0 396 65" data-background-color="#ffffff" preserveAspectRatio="xMidYMid meet" height="246" width="1500" xmlns="http://www.w3.org/2000/svg" xmlns:xlink="http://www.w3.org/1999/xlink"><g id="tight-bounds" transform="matrix(1,0,0,1,0.24000000000003752,-0.15929333219781938)"><svg viewBox="0 0 395.5199999999999 65.31858666439561" height="65.31858666439561" width="395.5199999999999"><g><svg viewBox="0 0 655.6797382549884 108.28295359854545" height="65.31858666439561" width="395.5199999999999"><g transform="matrix(1,0,0,1,258.18213825498844,4.1245288727928795)"><svg viewBox="0 0 397.4975999999999 100.03389585295969" height="100.03389585295969" width="397.4975999999999"><g id="textblocktransform"><svg viewBox="0 0 397.4975999999999 100.03389585295969" height="100.03389585295969" width="397.4975999999999" id="textblock"><g><rect width="397.4975999999999" height="4.785933395805616" x="0" y="58.70816826937963" fill="#8d021f" opacity="1" stroke-width="0" stroke="transparent" fill-opacity="1" class="rect-qz-0" data-fill-palette-color="primary" rx="1%" id="qz-0" data-palette-color="#8d021f"></rect></g><g transform="matrix(1,0,0,1,0.9887999999999693,0)"><svg viewBox="0 0 395.52 53.07028861463479" height="53.07028861463479" width="395.52"><g transform="matrix(1,0,0,1,0,0)"><svg width="395.52" viewBox="0.95 -35 267.52403225806455 35.9" height="53.07028861463479" data-palette-color="#8d021f"><path d="M24.55-2.85L19.05-24.95 16.2-24.95 10.6-2.85 3.85-24.95 0.95-24.95 8.55 0 12.45 0 17.55-20.25 22.55 0 26.4 0 34.2-24.95 31.25-24.95 24.55-2.85ZM54.7-9.25L54.7-9.25 54.7-15.8Q54.7-20.4 52.35-23 50-25.6 45.55-25.6L45.55-25.6Q42.6-25.6 40.5-24.48 38.4-23.35 37.3-21.18 36.2-19 36.2-15.8L36.2-15.8 36.2-9.25Q36.2-6.55 37.25-4.35 38.3-2.15 40.42-0.83 42.55 0.5 45.65 0.5L45.65 0.5Q50.2 0.5 52.45-2.18 54.7-4.85 54.7-9.25ZM51.9-15.8L51.9-15.8 51.9-8.75Q51.9-6.7 51.22-5.18 50.55-3.65 49.15-2.83 47.75-2 45.65-2L45.65-2Q43.65-2 42.15-2.85 40.65-3.7 39.82-5.23 39-6.75 39-8.75L39-8.75 39-15.8Q39-18.2 39.75-19.83 40.5-21.45 41.97-22.28 43.45-23.1 45.65-23.1L45.65-23.1Q47.85-23.1 49.22-22.28 50.6-21.45 51.25-19.83 51.9-18.2 51.9-15.8ZM72.15-23.05L72.15-23.05 72.34-25.45Q72.34-25.45 71.67-25.55 71-25.65 70.09-25.6L70.09-25.6Q67.4-25.45 65.42-24.85 63.45-24.25 61.6-23.4L61.6-23.4 61.6-25.05 58.75-25.05 58.75 0 61.6 0 61.6-20.45Q62.3-20.9 63.3-21.38 64.3-21.85 65.45-22.23 66.59-22.6 67.8-22.83 69-23.05 70.05-23.1L70.05-23.1Q70.9-23.15 71.52-23.1 72.15-23.05 72.15-23.05ZM94.54 0L83.64-17.6 91.04-24.1 89.04-26 79.04-16.75 79.04-35 76.19-35 76.19 0 79.04 0 79.04-13.65 81.64-15.85 91.19 0 94.54 0ZM114.39-9.25L114.39-9.25 114.39-15.8Q114.39-20.4 112.04-23 109.69-25.6 105.24-25.6L105.24-25.6Q102.29-25.6 100.19-24.48 98.09-23.35 96.99-21.18 95.89-19 95.89-15.8L95.89-15.8 95.89-9.25Q95.89-6.55 96.94-4.35 97.99-2.15 100.12-0.83 102.24 0.5 105.34 0.5L105.34 0.5Q109.89 0.5 112.14-2.18 114.39-4.85 114.39-9.25ZM111.59-15.8L111.59-15.8 111.59-8.75Q111.59-6.7 110.92-5.18 110.24-3.65 108.84-2.83 107.44-2 105.34-2L105.34-2Q103.34-2 101.84-2.85 100.34-3.7 99.52-5.23 98.69-6.75 98.69-8.75L98.69-8.75 98.69-15.8Q98.69-18.2 99.44-19.83 100.19-21.45 101.67-22.28 103.14-23.1 105.34-23.1L105.34-23.1Q107.54-23.1 108.92-22.28 110.29-21.45 110.94-19.83 111.59-18.2 111.59-15.8ZM134.09-2.4L134.09-2.4 134.09 0 136.89 0 136.89-25.05 134.09-25.05 134.09-8.65Q134.09-7.3 133.59-6.15 133.09-5 132.16-4.1 131.24-3.2 129.99-2.7 128.74-2.2 127.24-2.2L127.24-2.2Q125.34-2.2 123.99-2.83 122.64-3.45 121.94-4.85 121.24-6.25 121.24-8.55L121.24-8.55 121.24-25.05 118.39-25.05 118.39-7.85Q118.39-6.15 118.76-4.8 119.14-3.45 119.86-2.45 120.59-1.45 121.66-0.8 122.74-0.15 124.11 0.18 125.49 0.5 127.14 0.5L127.14 0.5Q128.39 0.5 129.69 0.18 130.99-0.15 132.14-0.8 133.29-1.45 134.09-2.4ZM143.99-6.6L143.99-6.6 143.99-22.4 148.84-22.4 150.04-25 143.99-25 143.99-35 141.19-35 141.19-6.6Q141.19-3.7 142.44-1.95 143.69-0.2 146.44 0.65L146.44 0.65 147.29-1.5Q146.19-1.9 145.46-2.58 144.74-3.25 144.36-4.28 143.99-5.3 143.99-6.6ZM181.43-21.95L181.43-21.95 182.58-23.85Q181.38-24.6 180.23-24.98 179.08-25.35 178.03-25.48 176.98-25.6 175.98-25.6L175.98-25.6Q174.48-25.6 173.03-25.2 171.58-24.8 170.41-23.98 169.23-23.15 168.53-21.98 167.83-20.8 167.83-19.2L167.83-19.2Q167.83-17.55 168.61-16.38 169.38-15.2 170.63-14.35 171.88-13.5 173.41-12.85 174.93-12.2 176.46-11.6 177.98-11 179.23-10.28 180.48-9.55 181.26-8.58 182.03-7.6 182.03-6.25L182.03-6.25Q182.03-5.05 181.46-4.2 180.88-3.35 179.96-2.78 179.03-2.2 177.98-1.95 176.93-1.7 175.98-1.7L175.98-1.7Q174.43-1.7 173.06-2.08 171.68-2.45 170.48-3.2 169.28-3.95 168.13-5.05L168.13-5.05 166.58-3.4Q168.33-1.4 170.83-0.25 173.33 0.9 175.98 0.9L175.98 0.9Q177.58 0.9 179.11 0.45 180.63 0 181.88-0.9 183.13-1.8 183.88-3.15 184.63-4.5 184.63-6.3L184.63-6.3Q184.63-8.15 183.86-9.43 183.08-10.7 181.83-11.6 180.58-12.5 179.06-13.18 177.53-13.85 176.03-14.43 174.53-15 173.28-15.68 172.03-16.35 171.26-17.2 170.48-18.05 170.48-19.3L170.48-19.3Q170.48-20.35 171.03-21.1 171.58-21.85 172.48-22.33 173.38-22.8 174.46-23.03 175.53-23.25 176.53-23.25L176.53-23.25Q177.38-23.25 178.26-23.1 179.13-22.95 179.96-22.68 180.78-22.4 181.43-21.95ZM191.58-23.35L191.58-23.35 191.58-35 188.73-35 188.73 0 191.58 0 191.58-21.25Q192.63-21.85 193.65-22.23 194.68-22.6 195.75-22.8 196.83-23 197.98-23L197.98-23Q199.18-23 200.33-22.73 201.48-22.45 202.4-21.78 203.33-21.1 203.88-19.98 204.43-18.85 204.43-17.15L204.43-17.15 204.43 0 207.23 0 207.23-17.3Q207.23-18.9 206.85-20.2 206.48-21.5 205.75-22.48 205.03-23.45 203.98-24.13 202.93-24.8 201.55-25.15 200.18-25.5 198.53-25.5L198.53-25.5Q197.28-25.5 196.05-25.23 194.83-24.95 193.68-24.48 192.53-24 191.58-23.35ZM224.68-23.05L224.68-23.05 224.88-25.45Q224.88-25.45 224.2-25.55 223.53-25.65 222.63-25.6L222.63-25.6Q219.93-25.45 217.95-24.85 215.98-24.25 214.13-23.4L214.13-23.4 214.13-25.05 211.28-25.05 211.28 0 214.13 0 214.13-20.45Q214.83-20.9 215.83-21.38 216.83-21.85 217.98-22.23 219.13-22.6 220.33-22.83 221.53-23.05 222.58-23.1L222.58-23.1Q223.43-23.15 224.05-23.1 224.68-23.05 224.68-23.05ZM230.17-6.7L230.17-6.7 230.17-9.8 245.42-10.6 245.42-17.1Q245.42-19.9 244.35-21.75 243.27-23.6 241.3-24.55 239.32-25.5 236.62-25.5L236.62-25.5Q233.97-25.5 231.87-24.55 229.77-23.6 228.57-21.7 227.37-19.8 227.37-16.95L227.37-16.95 227.37-6.7Q227.37-4.6 228-3.2 228.62-1.8 229.77-0.95 230.92-0.1 232.52 0.25 234.12 0.6 236.02 0.6L236.02 0.6Q237.92 0.6 240.12-0.03 242.32-0.65 244.17-1.75L244.17-1.75 243.07-3.9Q241.22-2.95 239.42-2.38 237.62-1.8 235.77-1.8L235.77-1.8Q234.57-1.8 233.55-2.08 232.52-2.35 231.77-2.93 231.02-3.5 230.6-4.42 230.17-5.35 230.17-6.7ZM242.62-17.45L242.62-17.45 242.62-13.1 230.17-12.55 230.17-16.9Q230.17-18.9 230.95-20.3 231.72-21.7 233.17-22.43 234.62-23.15 236.57-23.15L236.57-23.15Q238.32-23.15 239.67-22.45 241.02-21.75 241.82-20.48 242.62-19.2 242.62-17.45ZM268.47 0L268.47 0 268.47-35 265.72-35 265.72-23.65Q264.02-24.4 262.02-24.95 260.02-25.5 257.57-25.5L257.57-25.5Q256.07-25.5 254.6-25.1 253.12-24.7 251.9-23.83 250.67-22.95 249.95-21.5 249.22-20.05 249.22-17.95L249.22-17.95 249.22-8.45Q249.22-5.7 250.1-3.9 250.97-2.1 252.52-1.13 254.07-0.15 256.17 0.2 258.27 0.55 260.67 0.5L260.67 0.5Q261.37 0.5 262.37 0.45 263.37 0.4 264.45 0.33 265.52 0.25 266.45 0.18 267.37 0.1 267.95 0.05 268.52 0 268.47 0ZM265.72-21.15L265.72-21.15 265.72-2.3Q265.72-2.3 265.47-2.27 265.22-2.25 264.77-2.2 264.32-2.15 263.67-2.1 263.02-2.05 262.2-2 261.37-1.95 260.42-1.9L260.42-1.9Q257.92-1.85 256.3-2.23 254.67-2.6 253.72-3.48 252.77-4.35 252.37-5.68 251.97-7 251.97-8.8L251.97-8.8 251.97-17.75Q251.97-19.5 252.57-20.58 253.17-21.65 254.05-22.2 254.92-22.75 255.82-22.95 256.72-23.15 257.37-23.15L257.37-23.15Q259.77-23.15 261.75-22.58 263.72-22 265.72-21.15Z" opacity="1" transform="matrix(1,0,0,1,0,0)" fill="#8d021f" class="wordmark-text-0" data-fill-palette-color="primary" id="text-0"></path></svg></g></svg></g><g transform="matrix(1,0,0,1,0,69.13198131993008)"><svg viewBox="0 0 232.20979199999996 30.90191453302961" height="30.90191453302961" width="232.20979199999996"><g transform="matrix(1,0,0,1,0,0)"><svg width="232.20979199999996" viewBox="1.86 -41.19 407.24 54.199999999999996" height="30.90191453302961" data-palette-color="#ff908b"><path d="M31.84-28.2L31.84 0 23.58 0 23.58-3.37Q22.12-1.37 20.06-0.4 17.99 0.56 15.53 0.56L15.53 0.56Q12.3 0.56 9.77-0.59 7.23-1.73 5.47-3.72 3.71-5.71 2.78-8.4 1.86-11.08 1.86-14.16L1.86-14.16Q1.86-17.24 2.78-19.92 3.71-22.61 5.47-24.6 7.23-26.59 9.77-27.73 12.3-28.88 15.53-28.88L15.53-28.88Q17.16-28.88 18.64-28.39 20.12-27.91 21.35-27.01 22.58-26.12 23.52-24.87 24.46-23.61 25-22.07L25-22.07 28.66-28.2 31.84-28.2ZM23.54-14.16L23.54-14.16Q23.54-15.26 23.43-16.48 23.32-17.7 23.05-18.9 22.78-20.09 22.3-21.18 21.83-22.27 21.08-23.11 20.34-23.95 19.29-24.44 18.24-24.93 16.85-24.93L16.85-24.93Q15.45-24.93 14.43-24.43 13.4-23.93 12.67-23.08 11.94-22.24 11.46-21.14 10.99-20.04 10.72-18.85 10.45-17.65 10.34-16.44 10.23-15.23 10.23-14.16L10.23-14.16Q10.23-13.09 10.34-11.87 10.45-10.64 10.72-9.45 10.99-8.25 11.46-7.15 11.94-6.05 12.67-5.21 13.4-4.37 14.43-3.87 15.45-3.37 16.85-3.37L16.85-3.37Q18.12-3.37 19.1-3.89 20.09-4.42 20.84-5.3 21.58-6.18 22.09-7.3 22.61-8.42 22.92-9.62 23.24-10.82 23.39-12 23.54-13.18 23.54-14.16ZM46.97-32.62L46.97 0 38.72 0 38.72-41.19 41.89-41.19 46.97-32.62ZM71.16-17.14L66.5 0 59.08 0 51.36-28.2 59.61-28.2 64.45-8.42 68.48-28.2 75.9-28.2 80.83-7.89 85.59-28.2 91.3-28.2 82.76 0 75.34 0 71.16-17.14ZM123.58-28.2L123.58 0 115.32 0 115.32-3.37Q113.86-1.37 111.8-0.4 109.73 0.56 107.27 0.56L107.27 0.56Q104.05 0.56 101.51-0.59 98.97-1.73 97.21-3.72 95.45-5.71 94.52-8.4 93.6-11.08 93.6-14.16L93.6-14.16Q93.6-17.24 94.52-19.92 95.45-22.61 97.21-24.6 98.97-26.59 101.51-27.73 104.05-28.88 107.27-28.88L107.27-28.88Q108.9-28.88 110.38-28.39 111.86-27.91 113.09-27.01 114.32-26.12 115.26-24.87 116.2-23.61 116.74-22.07L116.74-22.07 120.4-28.2 123.58-28.2ZM115.28-14.16L115.28-14.16Q115.28-15.26 115.17-16.48 115.06-17.7 114.79-18.9 114.52-20.09 114.04-21.18 113.57-22.27 112.82-23.11 112.08-23.95 111.03-24.44 109.98-24.93 108.59-24.93L108.59-24.93Q107.19-24.93 106.17-24.43 105.14-23.93 104.41-23.08 103.68-22.24 103.2-21.14 102.73-20.04 102.46-18.85 102.19-17.65 102.08-16.44 101.97-15.23 101.97-14.16L101.97-14.16Q101.97-13.09 102.08-11.87 102.19-10.64 102.46-9.45 102.73-8.25 103.2-7.15 103.68-6.05 104.41-5.21 105.14-4.37 106.17-3.87 107.19-3.37 108.59-3.37L108.59-3.37Q109.86-3.37 110.84-3.89 111.83-4.42 112.58-5.3 113.32-6.18 113.84-7.3 114.35-8.42 114.67-9.62 114.98-10.82 115.13-12 115.28-13.18 115.28-14.16ZM149.99-28.2L155.7-28.2 145.45-3.39Q143.69 0.85 141.53 5.02 139.37 9.18 136.86 13.01L136.86 13.01 133.63 11.06Q134.24 9.96 135.07 8.52 135.9 7.08 136.71 5.54 137.51 4 138.2 2.5 138.88 1 139.25-0.24L139.25-0.24 126.92-28.2 135.17-28.2 143.54-9.13 149.99-28.2ZM183.22-9.01L183.22-9.01Q183.22-7.15 182.68-5.71 182.14-4.27 181.21-3.21 180.29-2.15 179.02-1.43 177.75-0.71 176.29-0.27 174.84 0.17 173.25 0.37 171.67 0.56 170.1 0.56L170.1 0.56Q168.01 0.56 166.39 0.29 164.78 0.02 163.32-0.57 161.85-1.17 160.4-2.12 158.95-3.08 157.17-4.44L157.17-4.44 161.97-8.37Q162.63-7.13 163.72-6.12 164.81-5.1 165.98-4.37 167.15-3.64 168.25-3.25 169.35-2.86 170.03-2.86L170.03-2.86Q170.59-2.86 171.3-2.89 172.01-2.93 172.74-3.04 173.47-3.15 174.18-3.37 174.89-3.59 175.44-3.97 175.99-4.35 176.32-4.92 176.65-5.49 176.65-6.3L176.65-6.3Q176.65-7.13 176.22-7.75 175.79-8.37 175.11-8.84 174.43-9.3 173.55-9.62 172.67-9.94 171.78-10.18 170.89-10.42 170.06-10.61 169.23-10.79 168.62-10.96L168.62-10.96Q167.49-11.28 166.25-11.61 165-11.94 163.78-12.37 162.56-12.79 161.45-13.38 160.34-13.96 159.5-14.78 158.65-15.6 158.15-16.71 157.65-17.82 157.65-19.31L157.65-19.31Q157.65-22.05 158.74-23.89 159.83-25.73 161.61-26.84 163.39-27.95 165.66-28.42 167.93-28.88 170.28-28.88L170.28-28.88Q171.89-28.88 173.67-28.55 175.45-28.22 177.14-27.58 178.82-26.93 180.29-26 181.75-25.07 182.73-23.88L182.73-23.88 177.92-19.92Q177.38-21.39 176.51-22.44 175.65-23.49 174.63-24.16 173.62-24.83 172.56-25.15 171.5-25.46 170.59-25.46L170.59-25.46Q169.71-25.46 168.62-25.39 167.52-25.32 166.55-24.98 165.59-24.63 164.92-23.94 164.25-23.24 164.25-22.02L164.25-22.02Q164.25-21.14 164.65-20.52 165.05-19.9 165.71-19.45 166.37-18.99 167.21-18.69 168.05-18.38 168.93-18.15 169.81-17.92 170.64-17.75 171.47-17.58 172.13-17.38L172.13-17.38Q173.25-17.07 174.51-16.74 175.77-16.41 176.99-15.98 178.21-15.55 179.35-14.98 180.48-14.4 181.34-13.57 182.19-12.74 182.7-11.63 183.22-10.52 183.22-9.01ZM226.84-9.01L226.84-9.01Q226.84-7.15 226.3-5.71 225.76-4.27 224.84-3.21 223.91-2.15 222.64-1.43 221.37-0.71 219.92-0.27 218.46 0.17 216.88 0.37 215.29 0.56 213.73 0.56L213.73 0.56Q211.63 0.56 210.02 0.29 208.41 0.02 206.94-0.57 205.48-1.17 204.02-2.12 202.57-3.08 200.79-4.44L200.79-4.44 205.6-8.37Q206.26-7.13 207.34-6.12 208.43-5.1 209.6-4.37 210.77-3.64 211.87-3.25 212.97-2.86 213.65-2.86L213.65-2.86Q214.22-2.86 214.92-2.89 215.63-2.93 216.36-3.04 217.1-3.15 217.8-3.37 218.51-3.59 219.06-3.97 219.61-4.35 219.94-4.92 220.27-5.49 220.27-6.3L220.27-6.3Q220.27-7.13 219.84-7.75 219.42-8.37 218.73-8.84 218.05-9.3 217.17-9.62 216.29-9.94 215.4-10.18 214.51-10.42 213.68-10.61 212.85-10.79 212.24-10.96L212.24-10.96Q211.12-11.28 209.87-11.61 208.63-11.94 207.4-12.37 206.18-12.79 205.07-13.38 203.96-13.96 203.12-14.78 202.28-15.6 201.78-16.71 201.28-17.82 201.28-19.31L201.28-19.31Q201.28-22.05 202.36-23.89 203.45-25.73 205.23-26.84 207.01-27.95 209.28-28.42 211.55-28.88 213.9-28.88L213.9-28.88Q215.51-28.88 217.29-28.55 219.07-28.22 220.76-27.58 222.44-26.93 223.91-26 225.37-25.07 226.35-23.88L226.35-23.88 221.54-19.92Q221-21.39 220.14-22.44 219.27-23.49 218.26-24.16 217.24-24.83 216.18-25.15 215.12-25.46 214.22-25.46L214.22-25.46Q213.34-25.46 212.24-25.39 211.14-25.32 210.18-24.98 209.21-24.63 208.54-23.94 207.87-23.24 207.87-22.02L207.87-22.02Q207.87-21.14 208.27-20.52 208.67-19.9 209.33-19.45 209.99-18.99 210.83-18.69 211.68-18.38 212.56-18.15 213.43-17.92 214.26-17.75 215.09-17.58 215.75-17.38L215.75-17.38Q216.88-17.07 218.13-16.74 219.39-16.41 220.61-15.98 221.83-15.55 222.97-14.98 224.1-14.4 224.96-13.57 225.81-12.74 226.33-11.63 226.84-10.52 226.84-9.01ZM260.87-16.16L260.87-16.16Q260.87-13.31 260.17-10.21 259.48-7.1 258.23-4.13 256.99-1.15 255.25 1.48 253.52 4.1 251.44 6.01L251.44 6.01 248.34 4.32Q249 3.1 249.59 1.59 250.18 0.07 250.65-1.62 251.13-3.32 251.51-5.13 251.88-6.93 252.14-8.7 252.4-10.47 252.53-12.15 252.67-13.82 252.67-15.26L252.67-15.26Q252.67-16.21 252.59-17.3 252.52-18.38 252.29-19.47 252.06-20.56 251.66-21.56 251.27-22.56 250.63-23.32 249.98-24.07 249.06-24.54 248.15-25 246.9-25L246.9-25Q245.68-25 244.73-24.45 243.78-23.9 243.05-23.01 242.31-22.12 241.79-20.97 241.26-19.82 240.93-18.62 240.61-17.41 240.46-16.24 240.31-15.06 240.31-14.14L240.31-14.14 240.31 0 232.04 0 232.04-38.57 240.29-38.57 240.29-24.05Q241.87-26.37 244.18-27.62 246.49-28.88 249.3-28.88L249.3-28.88Q252.23-28.88 254.4-27.93 256.57-26.98 258.01-25.28 259.45-23.58 260.16-21.25 260.87-18.92 260.87-16.16ZM290.29-25.71L290.29-25.71 285.65-18.02Q285.35-18.99 284.89-20.21 284.43-21.44 283.74-22.5 283.06-23.56 282.11-24.28 281.15-25 279.91-25L279.91-25Q278.76-25 277.92-24.41 277.08-23.83 276.49-22.89 275.91-21.95 275.53-20.76 275.15-19.58 274.94-18.37 274.73-17.16 274.66-16.05 274.59-14.94 274.59-14.14L274.59-14.14 274.59 0 266.31 0 266.31-28.2 269.48-28.2 272.83-21.63Q273.51-23.22 274.39-24.55 275.27-25.88 276.42-26.84 277.57-27.81 279.02-28.34 280.47-28.88 282.3-28.88L282.3-28.88Q283.25-28.88 284.43-28.72 285.6-28.56 286.72-28.19 287.84-27.81 288.8-27.2 289.75-26.59 290.29-25.71ZM299.78-13.38L299.78-13.38Q301.29-13.04 302.81-12.84 304.32-12.65 305.86-12.65L305.86-12.65Q307.47-12.65 308.85-12.95 310.23-13.26 311.24-13.98 312.26-14.7 312.84-15.89 313.43-17.09 313.43-18.87L313.43-18.87Q313.43-20.31 313.04-21.51 312.65-22.71 311.88-23.56 311.11-24.41 309.98-24.89 308.86-25.37 307.37-25.37L307.37-25.37Q305.98-25.37 304.87-24.85 303.76-24.34 302.92-23.47 302.07-22.61 301.48-21.46 300.88-20.31 300.49-19.07 300.1-17.82 299.93-16.55 299.76-15.28 299.76-14.16L299.76-14.16Q299.76-13.96 299.76-13.77 299.76-13.57 299.78-13.38ZM320.12-18.95L320.12-18.95Q320.12-17.21 319.56-15.86 318.99-14.5 318.03-13.48 317.06-12.45 315.8-11.74 314.53-11.04 313.09-10.58 311.64-10.13 310.12-9.94 308.59-9.74 307.15-9.74L307.15-9.74Q305.32-9.74 303.54-10 301.76-10.25 300.02-10.82L300.02-10.82Q300.29-9.2 300.88-7.75 301.46-6.3 302.44-5.21 303.42-4.13 304.85-3.49 306.27-2.86 308.23-2.86L308.23-2.86Q309.52-2.86 310.69-3.25 311.86-3.64 312.84-4.35 313.82-5.05 314.56-6.03 315.31-7.01 315.77-8.2L315.77-8.2 319.34-6.88Q318.53-4.96 317.13-3.55 315.72-2.15 313.95-1.23 312.18-0.32 310.19 0.12 308.2 0.56 306.25 0.56L306.25 0.56Q303.03 0.56 300.29-0.52 297.56-1.61 295.58-3.56 293.6-5.52 292.48-8.23 291.36-10.94 291.36-14.16L291.36-14.16Q291.36-17.38 292.48-20.09 293.6-22.8 295.58-24.76 297.56-26.71 300.29-27.8 303.03-28.88 306.25-28.88L306.25-28.88Q307.81-28.88 309.45-28.66 311.08-28.44 312.62-27.97 314.16-27.49 315.53-26.73 316.89-25.98 317.91-24.87 318.92-23.75 319.52-22.29 320.12-20.83 320.12-18.95ZM353.68-38.57L353.68 0 350.51 0 346.85-6.13Q346.31-4.59 345.37-3.34 344.43-2.1 343.2-1.21 341.96-0.32 340.49 0.17 339.01 0.66 337.37 0.66L337.37 0.66Q334.15 0.66 331.61-0.49 329.07-1.64 327.32-3.63 325.56-5.62 324.63-8.3 323.7-10.99 323.7-14.06L323.7-14.06Q323.7-17.14 324.63-19.82 325.56-22.51 327.32-24.49 329.07-26.46 331.61-27.61 334.15-28.76 337.37-28.76L337.37-28.76Q339.84-28.76 341.9-27.81 343.97-26.86 345.43-24.83L345.43-24.83 345.43-38.57 353.68-38.57ZM345.38-14.06L345.38-14.06Q345.38-15.04 345.24-16.21 345.09-17.38 344.77-18.58 344.45-19.78 343.94-20.9 343.43-22.02 342.68-22.9 341.94-23.78 340.95-24.3 339.96-24.83 338.69-24.83L338.69-24.83Q337.3-24.83 336.28-24.33 335.25-23.83 334.52-22.99 333.79-22.14 333.31-21.04 332.83-19.95 332.57-18.75 332.3-17.55 332.19-16.35 332.08-15.14 332.08-14.06L332.08-14.06Q332.08-12.99 332.19-11.78 332.3-10.57 332.57-9.38 332.83-8.18 333.31-7.07 333.79-5.96 334.52-5.11 335.25-4.27 336.28-3.77 337.3-3.27 338.69-3.27L338.69-3.27Q340.08-3.27 341.13-3.76 342.18-4.25 342.93-5.09 343.67-5.93 344.15-7.02 344.63-8.11 344.89-9.31 345.16-10.52 345.27-11.74 345.38-12.96 345.38-14.06ZM383.39-35.01L383.39-35.01Q383.39-34.08 383.04-33.25 382.68-32.42 382.07-31.81 381.46-31.2 380.63-30.85 379.8-30.49 378.87-30.49L378.87-30.49Q377.95-30.49 377.13-30.85 376.31-31.2 375.7-31.81 375.09-32.42 374.74-33.25 374.38-34.08 374.38-35.01L374.38-35.01Q374.38-35.94 374.74-36.76 375.09-37.57 375.7-38.18 376.31-38.79 377.13-39.15 377.95-39.5 378.87-39.5L378.87-39.5Q379.8-39.5 380.63-39.15 381.46-38.79 382.07-38.18 382.68-37.57 383.04-36.76 383.39-35.94 383.39-35.01ZM383.02-28.17L383.02 0 374.75 0 374.75-28.17 383.02-28.17ZM400.55-24.93L400.55 0 392.27 0 392.27-24.93 387.15-24.93 387.15-28.2 392.27-28.2 392.27-38.57 400.55-38.57 400.55-28.2 409.1-28.2 409.1-24.93 400.55-24.93Z" opacity="1" transform="matrix(1,0,0,1,0,0)" fill="#ff908b" class="slogan-text-1" data-fill-palette-color="secondary" id="text-1"></path></svg></g></svg></g></svg></g></svg></g><g><svg viewBox="0 0 245.65351679999992 108.28295359854545" height="108.28295359854545" width="245.65351679999992"><g><svg xmlns:x="http://ns.adobe.com/Extensibility/1.0/" xmlns:i="http://ns.adobe.com/AdobeIllustrator/10.0/" xmlns:graph="http://ns.adobe.com/Graphs/1.0/" xmlns="http://www.w3.org/2000/svg" xmlns:xlink="http://www.w3.org/1999/xlink" version="1.1" x="0" y="0" viewBox="6 30.605 88 38.790000000000006" enable-background="new 0 0 100 100" xml:space="preserve" height="108.28295359854545" width="245.65351679999992" class="icon-icon-0" data-fill-palette-color="accent" id="icon-0"><path d="M93.5 48.889V47.5c0-0.552-0.447-1-1-1s-1 0.448-1 1v1h-1.974v-8.789c0-2.308-1.877-4.185-4.185-4.185H84c-2.308 0-4.185 1.877-4.185 4.185V48.5h-1.474V35.237c0-2.308-1.877-4.185-4.184-4.185h-3.579c-2.308 0-4.185 1.877-4.185 4.185V43.5H33.605v-8.711c0-2.307-1.877-4.184-4.185-4.184h-3.579c-2.308 0-4.185 1.877-4.185 4.184V48.5h-1.474v-8.789c0-2.308-1.877-4.185-4.184-4.185h-1.342c-2.307 0-4.184 1.877-4.184 4.185V48.5H8.5v-1c0-0.552-0.448-1-1-1s-1 0.448-1 1v1.389C6.195 49.164 6 49.558 6 50s0.195 0.836 0.5 1.111V52.5c0 0.553 0.448 1 1 1s1-0.447 1-1v-1h1.974v8.789c0 2.308 1.877 4.185 4.184 4.185H16c2.307 0 4.184-1.877 4.184-4.185V51.5h1.474v13.263c0 2.308 1.877 4.185 4.185 4.185h3.579c2.308 0 4.185-1.877 4.185-4.185V56.5h32.789v8.71c0 2.308 1.877 4.185 4.185 4.185h3.579c2.307 0 4.184-1.877 4.184-4.185V51.5h1.474v8.789c0 2.308 1.877 4.185 4.185 4.185h1.342c2.308 0 4.185-1.877 4.185-4.185V51.5H91.5v1c0 0.553 0.447 1 1 1s1-0.447 1-1v-1.39C93.805 50.836 94 50.442 94 50S93.805 49.164 93.5 48.889zM62.5 51h-25c-0.552 0-1-0.448-1-1s0.448-1 1-1h25c0.553 0 1 0.448 1 1S63.053 51 62.5 51z" fill="#ff5858" data-fill-palette-color="accent"></path></svg><g></g></g></svg></g></svg></g><defs></defs></svg><rect width="395.5199999999999" height="65.31858666439561" fill="none" stroke="none" visibility="hidden"></rect></g></svg></g></svg>